# xmcd
#
# Track frame offsets:
#	150
#	4139
#	13382
#	28778
#	40486
#	52038
#	89159
#	95615
#	125788
#	143343
#	170657
#	190176
#	218032
#	227620
#	247910
#
# Disc length: 3678 seconds
#
# Revision: 2
# Processed by: cddbd v1.5.1PL2 Copyright (c) Steve Scherf et al.
# Submitted via: EasyCDDAExtractor 9.0.0.1
#
DISCID=d40e5c0f
DTITLE=Ozzy Osbourne - Long Beach Arena Long Beach 31-12-88 Disc 2 Remaster
DYEAR=1988
DGENRE=Hard Rock
TTITLE0=Ozzy Speaks [Part 2]
TTITLE1=Guitar Solo [Part 2]
TTITLE2=Sweet Leaf
TTITLE3=War Pigs
TTITLE4=Tattooed Dancer
TTITLE5=Drums Solo
TTITLE6=Tattooed Dancer Reprise
TTITLE7=Fire In The Sky
TTITLE8=Miracle Man
TTITLE9=Suicide Solution
TTITLE10=Iron Man
TTITLE11=Crazy Train
TTITLE12=Happy New Year !
TTITLE13=Bark At The Moon
TTITLE14=Paranoid
EXTD=
EXTT0=
EXTT1=
EXTT2=
EXTT3=
EXTT4=
EXTT5=
EXTT6=
EXTT7=
EXTT8=
EXTT9=
EXTT10=
EXTT11=
EXTT12=
EXTT13=
EXTT14=
PLAYORDER=
